<svg width="228" height="46" fill="none" xmlns="http://www.w3.org/2000/svg"><g clip-path="url(#a)" fill="#fff"><path d="M97.076 29.998V18.425h4.226v-2.517H89.895v2.517h4.234v11.573h2.947Zm15.262-10.771h-2.842v6.213c0 1.436-.763 2.32-2.177 2.32-1.308 0-1.984-.76-1.984-2.244v-6.29h-2.842v7.023c0 2.498 1.447 3.983 3.772 3.983 1.628 0 2.634-.71 3.144-1.965h.174v1.731h2.755V19.227Zm2.85 10.771h2.842v-6.21c0-1.417.813-2.343 2.132-2.343 1.345 0 1.98.779 1.98 2.268v6.285h2.842v-6.962c0-2.577-1.288-4.044-3.681-4.044-1.591 0-2.683.756-3.186 1.965h-.174v-1.73h-2.755v10.771Zm17.219-8.829c1.327 0 2.189.892 2.245 2.317h-4.592c.099-1.398 1.032-2.317 2.347-2.317Zm2.306 5.764c-.303.71-1.077 1.111-2.2 1.111-1.485 0-2.419-.994-2.46-2.596V25.3h7.392v-.87c0-3.416-1.874-5.438-5.049-5.438-3.205 0-5.178 2.17-5.178 5.673 0 3.496 1.935 5.567 5.216 5.567 2.638 0 4.501-1.277 4.924-3.3h-2.645Zm20.269 3.065v-14.09h-3.466l-3.904 9.51h-.177l-3.893-9.51h-3.477v14.09h2.732v-9.422h.155l3.594 8.662h1.966l3.583-8.662h.155v9.422h2.732Zm4.475 3.916c2.684 0 4.006-.975 4.921-3.75l3.712-10.938h-3.009l-2.268 8.164h-.173l-2.268-8.163h-3.133l3.779 10.84-.098.392c-.234.82-.839 1.16-1.901 1.16-.121 0-.548 0-.646-.018v2.286c.117.02.975.027 1.084.027Zm25.818-3.916v-14.09h-3.466l-3.904 9.51h-.178l-3.893-9.51h-3.477v14.09h2.733v-9.422h.155l3.594 8.662h1.965l3.583-8.662h.155v9.422h2.733Zm12.881-10.771h-2.839v6.213c0 1.436-.763 2.32-2.177 2.32-1.311 0-1.984-.76-1.984-2.244v-6.29h-2.842v7.023c0 2.498 1.447 3.983 3.768 3.983 1.633 0 2.638-.71 3.144-1.965h.178v1.731h2.755l-.003-10.771Zm2.607 3.163c0 1.663 1.021 2.657 3.107 3.118l1.954.439c.945.204 1.361.529 1.361 1.054 0 .692-.767 1.153-1.871 1.153-1.134 0-1.826-.42-2.041-1.153h-2.77c.192 2.071 1.912 3.231 4.754 3.231 2.824 0 4.747-1.405 4.747-3.552 0-1.614-.937-2.495-3.027-2.948l-2.022-.442c-.998-.227-1.455-.549-1.455-1.074 0-.684.752-1.141 1.769-1.141 1.054 0 1.708.427 1.852 1.122h2.63c-.159-2.06-1.769-3.205-4.505-3.205-2.684 0-4.479 1.36-4.479 3.402l-.004-.004Zm11.592 7.608h2.842V19.227h-2.842v10.771Zm1.429-12.382a1.615 1.615 0 0 0 1.61-1.632 1.613 1.613 0 0 0-3.224 0c0 .907.733 1.632 1.614 1.632Zm13.825 5.409c-.234-2.45-1.942-4.033-4.792-4.033-3.372 0-5.265 2.022-5.265 5.594 0 3.617 1.905 5.646 5.265 5.646 2.8 0 4.558-1.55 4.792-3.964h-2.653c-.215 1.066-.979 1.633-2.139 1.633-1.523 0-2.393-1.165-2.393-3.311 0-2.12.858-3.262 2.393-3.262 1.209 0 1.942.673 2.139 1.7l2.653-.003Z"/><path fill-rule="evenodd" clip-rule="evenodd" d="M59.954 22.998a5.5 5.5 0 1 0-5.408-4.505c-.945.272-1.909.545-2.842.786a34.82 34.82 0 0 1-3.837.824c-.54.076-.994.106-1.353.095a1.693 1.693 0 0 1-.612-.095c-.295-.147-.669-.544-1.126-1.254-.299-.465-.567-.96-.85-1.474l-.439-.79c-.408-.719-.915-1.542-1.535-2.019a1.988 1.988 0 0 0-1.341-.45 2.12 2.12 0 0 0-1.36.677 2.85 2.85 0 0 0-.692 1.486c-.103.521-.144 1.133-.152 1.76-.015.995.038 2.159.099 3.312l.045.91c.068 1.474.102 2.839-.023 3.893a4.156 4.156 0 0 1-.268 1.157.87.87 0 0 1-.136.227l-.03.026-.004.004-.008.004c-.038.019-.227.098-.73-.469-.494-.556-1-1.421-1.568-2.445a108.8 108.8 0 0 1-.2-.367 25.497 25.497 0 0 0-1.535-2.559 5.727 5.727 0 0 0-1.062-1.156 2.48 2.48 0 0 0-1.53-.579 1.962 1.962 0 0 0-1.391.53c-.277.284-.5.617-.654.982l-.132.291c-.238.518-.461 1.01-.934 1.523-.786.858-2.4 1.89-6.187 2.382a5.503 5.503 0 1 0 .295 1.98c4.052-.537 6.157-1.69 7.366-3.008.703-.768 1.062-1.565 1.297-2.087l.105-.227c.055-.128.123-.25.205-.362h.034c.015 0 .102 0 .29.15.19.152.416.398.677.757.458.63.907 1.451 1.399 2.343l.211.378c.545.983 1.153 2.056 1.826 2.808.646.726 1.685 1.504 2.967.99a2.381 2.381 0 0 0 1.258-1.3c.23-.517.355-1.126.431-1.738.144-1.24.098-2.76.034-4.218-.015-.322-.032-.643-.05-.964-.056-1.141-.112-2.215-.094-3.137.008-.582.046-1.055.114-1.406.064-.314.128-.43.143-.454.02-.02.042-.045.065-.064l.007.004c.25.193.579.658 1.013 1.425l.382.684c.302.548.631 1.149.964 1.667.472.74 1.096 1.557 1.916 1.965.457.205.954.31 1.455.306.506.015 1.077-.034 1.674-.113 1.202-.166 2.623-.491 4.07-.87 1.01-.264 2.05-.555 3.055-.846a5.492 5.492 0 0 0 4.694 2.63h-.008Z"/><path fill-rule="evenodd" clip-rule="evenodd" d="M46.008 8.402c-.68 1.115-.121 2.517 1.077 3.039 1.194.521 2.57-.042 3.3-1.119a12.779 12.779 0 1 1 4.35 18.338c-1.138-.635-2.62-.518-3.451.484s-.703 2.506.4 3.197a17.5 17.5 0 1 0-5.676-23.939Zm-19.03 4.558c1.096.707 1.206 2.215.36 3.205-.848.99-2.333 1.085-3.46.435a12.78 12.78 0 1 0 4.09 18.398c.749-1.065 2.132-1.61 3.319-1.073 1.187.54 1.723 1.95 1.032 3.054a17.5 17.5 0 1 1-5.34-24.019Z"/></g><defs><clipPath id="a"><path fill="#fff" d="M0 0h227.613v45.173H0z"/></clipPath></defs></svg>